<?xml version="1.0" encoding="iso-8859-1"?>
<!-- Generator: Adobe Illustrator 19.0.0, SVG Export Plug-In . SVG Version: 6.00 Build 0)  -->
<svg version="1.1" id="Layer_1" xmlns="http://www.w3.org/2000/svg" xmlns:xlink="http://www.w3.org/1999/xlink" x="0px" y="0px"
	 viewBox="0 0 511.999 511.999" style="enable-background:new 0 0 511.999 511.999;" xml:space="preserve">
<path style="fill:#77757E;" d="M4.088,446.1v37.62c0,13.26,10.749,24.01,24.01,24.01h115.973h48.237c0,0,149.851,0,199.8,0
	c26.025,0,60.78-4.768,99.809-19.148c8.626-3.178,14.365-11.4,14.365-20.592v-32.359L4.088,446.1z"/>
<g style="opacity:0.51;">
	<path style="fill:#57545C;" d="M4.088,421.961v37.62c0,13.26,10.749,24.01,24.01,24.01h115.973h48.237c0,0,149.851,0,199.8,0
		c26.025,0,60.78-4.768,99.809-19.148c8.626-3.178,14.365-11.4,14.365-20.592v-32.359L4.088,421.961z"/>
</g>
<path style="fill:#FFC477;" d="M29.755,89.975l13.451,162.648c0,10.602-2.814,21.015-8.156,30.175l-14.246,24.428
	C9.791,326.113,3.987,347.587,3.987,369.452v95.02H143.97h48.237c0,0,149.851,0,199.8,0c29.178,0,69.328-5.993,114.172-24.805
	l-5.534-51.611c0-33.543-56.921-79.822-79.908-77.101c-40.502,4.794-75.823-10.117-104.659-31.593
	c-54.075-40.275-85.241-65.8-85.241-133.227l13.451-56.159C244.288,89.975,29.755,89.975,29.755,89.975z"/>
<polygon style="fill:#FFB655;" points="244.319,89.975 29.787,89.975 32.741,125.703 235.761,125.703 "/>
<path style="fill:#FF9811;" d="M40.905,269.319c-1.361,4.69-3.273,9.223-5.754,13.478l-14.246,24.428
	C9.891,326.113,4.088,347.587,4.088,369.452v95.02h139.929C141.959,324.004,57.084,277.005,40.905,269.319z"/>
<g>
	<path style="fill:#663A00;" d="M274.799,195.443l-80.574,28.453c-1.334,0.472-2.811-0.235-3.281-1.568l-10.41-29.476
		c-0.472-1.334,0.235-2.811,1.568-3.281l80.574-28.453c1.334-0.472,2.811,0.235,3.281,1.568l10.41,29.476
		C276.839,193.496,276.132,194.973,274.799,195.443z"/>
	<path style="fill:#663A00;" d="M301.908,253.251l-60.727,21.445c-6.037,2.131-12.719-1.063-14.851-7.1l-4.371-12.377
		c-2.131-6.037,1.063-12.719,7.1-14.851l60.727-21.445c6.037-2.131,12.719,1.063,14.852,7.1l4.371,12.377
		C311.14,244.436,307.945,251.119,301.908,253.251z"/>
	<path style="fill:#663A00;" d="M349.871,301.195l-57.415,20.275c-6.037,2.131-12.719-1.063-14.851-7.1l-4.371-12.377
		c-2.131-6.037,1.063-12.719,7.1-14.852l57.415-20.275c6.037-2.131,12.719,1.063,14.852,7.1l4.371,12.377
		C359.102,292.38,355.907,299.062,349.871,301.195z"/>
</g>
<path style="fill:#AA6100;" d="M260.91,32.71c0-15.385-9.051-27.856-20.215-27.856H33.41c-11.164,0-20.215,12.471-20.215,27.856
	v40.195H260.91V32.71z"/>
<path style="fill:#EE8700;" d="M13.195,54.369v21.659c0,15.385,9.051,27.856,20.215,27.856h207.285
	c11.164,0,20.215-12.471,20.215-27.856V54.369H13.195z"/>
<g style="opacity:0.07;">
	<path style="fill:#663A00;" d="M392.006,393.357c-49.951,0-199.8,0-199.8,0H143.97H3.987v70.889H143.97h48.237
		c0,0,149.851,0,199.8,0c29.178,0,69.328-5.992,114.172-24.805l-5.534-51.387c0-6.106-3.646-7.373-4.981-13.053
		C451.655,393.136,420.734,393.357,392.006,393.357z"/>
</g>
<path d="M476.983,336.255c-19.852-19.769-46.136-30.604-73.889-30.476c-13.235,0.045-26.493-2.182-39.59-6.648
	c3.269-4.896,4.296-11.207,2.189-17.173l-4.058-11.494c-1.715-4.856-5.229-8.758-9.894-10.989c-4.667-2.232-9.91-2.515-14.766-0.8
	l-26.914,9.504c-2.133-1.612-4.121-3.126-5.981-4.558l1.326-0.468c4.856-1.715,8.758-5.229,10.99-9.894
	c2.231-4.666,2.515-9.91,0.8-14.766l-4.059-11.495c-3.549-10.049-14.611-15.336-24.661-11.789l-26.421,9.33
	c-2.916-3.775-5.487-7.581-7.749-11.478l16.491-5.824c10.049-3.549,15.337-14.612,11.789-24.661l-4.058-11.494
	c-1.715-4.856-5.229-8.758-9.894-10.989c-4.666-2.232-9.911-2.515-14.766-0.8l-13.412,4.736c-0.236-3.589-0.369-7.302-0.386-11.124
	l11.705-48.874c11.862-0.955,21.224-10.907,21.224-23.011V23.093C272.996,10.36,262.637,0,249.902,0H28.933
	C16.199,0,5.84,10.36,5.84,23.093V81.02c0,12.734,10.36,23.093,23.094,23.093h0.377l12.566,151.95
	c-0.053,8.856-2.436,17.569-6.898,25.221l-10.695,18.339c-13.489,23.131-20.619,49.51-20.619,76.285v62.864
	c0,1.244,0.082,2.469,0.224,3.677c-0.141,0.583-0.224,1.19-0.224,1.816v36.653c0,17.137,13.943,31.081,31.081,31.081h354.659
	c25.171,0,65.419-4.297,114.213-24.767c2.856-1.197,4.714-3.993,4.714-7.089v-42.147v-3.931v-22.327
	C508.332,383.194,497.199,356.387,476.983,336.255z M342.094,273.174c0.456-0.161,0.891-0.222,1.285-0.222
	c0.751,0,1.363,0.221,1.728,0.396c0.556,0.266,1.559,0.91,2.028,2.237l4.059,11.494c0.713,2.019-0.391,4.329-2.411,5.041
	l-58.749,20.746c-1.323,0.468-2.457,0.092-3.014-0.173c-0.557-0.267-1.559-0.91-2.029-2.237l-4.059-11.494
	c-0.713-2.019,0.391-4.329,2.411-5.041l2.992-1.057c0.092-0.015,0.182-0.04,0.276-0.053c1.103-0.158,2.115-0.546,3-1.104
	L342.094,273.174z M293.594,229.708c0.418-0.148,0.848-0.217,1.274-0.217c1.633,0,3.203,1.025,3.768,2.627l4.059,11.495
	c0.468,1.326,0.092,2.457-0.173,3.014c-0.266,0.557-0.91,1.559-2.237,2.028l0,0l-13.655,4.822c-0.597,0.132-1.177,0.338-1.73,0.611
	L241.536,269.4c-1.326,0.468-2.457,0.092-3.013-0.173c-0.557-0.266-1.559-0.91-2.029-2.237l-4.059-11.495
	c-0.468-1.326-0.092-2.457,0.173-3.013c0.265-0.557,0.91-1.559,2.237-2.029L293.594,229.708z M258.985,173.793
	c0.456-0.161,0.891-0.222,1.285-0.222c0.751,0,1.363,0.221,1.728,0.396c0.556,0.266,1.559,0.91,2.028,2.237l4.059,11.494
	c0.713,2.019-0.391,4.329-2.411,5.041l-24.81,8.761c-0.005,0.002-0.011,0.004-0.016,0.006l-33.922,11.979
	c-1.324,0.468-2.457,0.092-3.014-0.173c-0.557-0.266-1.559-0.91-2.029-2.237l-4.059-11.494c-0.713-2.019,0.391-4.329,2.411-5.041
	l34.521-12.19c0.005-0.001,0.01,0,0.015-0.001c1.101-0.145,2.113-0.521,3.002-1.064L258.985,173.793z M28.933,15.376h220.969
	c4.255,0,7.717,3.462,7.717,7.717v20.078H21.216V23.093C21.216,18.838,24.678,15.376,28.933,15.376z M21.216,81.021V58.549H257.62
	v22.472c0,4.255-3.462,7.717-7.717,7.717H28.933C24.678,88.738,21.216,85.275,21.216,81.021z M235.941,104.114l-11.041,46.101
	c-0.14,0.586-0.211,1.188-0.211,1.791c0,6.014,0.256,11.812,0.755,17.324l-22.401,7.911c-0.759-0.251-1.568-0.392-2.411-0.392
	c-15.099,0-27.382,12.284-27.382,27.383c0,15.1,12.284,27.383,27.382,27.383c5.375,0,10.579-1.558,15.052-4.506
	c0.34-0.225,0.649-0.477,0.941-0.742l22.954-8.105c2.166,3.965,4.593,7.826,7.304,11.635l-8.01,2.829
	c-0.326-0.042-0.655-0.071-0.992-0.071c-15.099,0-27.383,12.284-27.383,27.382c0,15.099,12.284,27.383,27.383,27.383
	c8.043,0,14.752-2.531,19.571-7.332l29.431-10.393c1.841,1.467,3.777,2.987,5.859,4.601l-10.475,3.7
	c-6.343,1.425-11.918,5.013-15.862,10.27c-4.389,5.851-6.237,13.061-5.203,20.302c1.033,7.24,4.825,13.646,10.676,18.034
	c4.79,3.593,10.491,5.483,16.375,5.483c1.303,0,2.615-0.092,3.927-0.28c6.629-0.946,12.695-4.325,17.004-9.393l37.632-13.289
	c18.465,8.054,37.389,12.072,56.343,12.033c23.709-0.089,46.042,9.133,62.974,25.995c17.297,17.226,26.823,40.163,26.823,64.587
	v21.106c-46.73,18.766-84.729,21.633-103.551,21.633h-234.06c-1.698-78.117-29.122-124.833-52.246-150.479
	c-18.705-20.747-37.432-31.314-47.036-35.806c0.783-4.084,1.19-8.246,1.19-12.432c0-0.212-0.008-0.423-0.026-0.633L44.739,104.114
	H235.941z M19.041,375.909c0-24.057,6.406-47.757,18.525-68.539l10.695-18.339c1.139-1.954,2.171-3.962,3.101-6.013
	c8.814,4.381,24.955,14.026,40.932,31.959c29.925,33.588,46.328,81.705,47.659,139.498H34.745c-8.659,0-15.704-7.045-15.704-15.704
	V375.909z M389.405,496.624H34.745c-8.659,0-15.704-7.045-15.704-15.704v-15.343c4.612,2.712,9.977,4.276,15.704,4.276h354.659
	c23.313,0,59.564-3.695,103.551-20.501v25.637C446.225,493.755,408.227,496.624,389.405,496.624z"/>
<g>
</g>
<g>
</g>
<g>
</g>
<g>
</g>
<g>
</g>
<g>
</g>
<g>
</g>
<g>
</g>
<g>
</g>
<g>
</g>
<g>
</g>
<g>
</g>
<g>
</g>
<g>
</g>
<g>
</g>
</svg>
